<?xml version="1.0" encoding="UTF-8"?>
<svg width="129px" height="26px" viewBox="0 0 129 26" version="1.1" xmlns="http://www.w3.org/2000/svg" xmlns:xlink="http://www.w3.org/1999/xlink">
    <!-- Generator: Sketch 41 (35326) - http://www.bohemiancoding.com/sketch -->
    <title>Group 20</title>
    <desc>Created with Sketch.</desc>
    <defs></defs>
    <g id="all-promos" stroke="none" stroke-width="1" fill="none" fill-rule="evenodd">
        <g id="Group-20">
            <path d="M46.488,16.54 L39.32,16.54 L37.724,22 L34.14,22 L39.936,3.604 C40.1040008,2.98799692 40.5239966,2.68 41.196,2.68 L44.612,2.68 C45.2840034,2.68 45.7039992,2.98799692 45.872,3.604 L51.668,22 L48.084,22 L46.488,16.54 Z M45.648,13.656 L43.716,6.992 C43.4546654,5.98399496 43.3146668,5.4333338 43.296,5.34 L42.54,5.34 L42.092,6.992 L40.16,13.656 L45.648,13.656 Z M56.964,22 L53.464,22 L53.464,2.68 L56.964,2.68 L56.964,22 Z M60.776,22 L60.776,2.68 C63.3333461,2.51199916 65.741322,2.428 68,2.428 C70.9306813,2.428 72.9793275,3.14665948 74.146,4.584 C75.3126725,6.02134052 75.896,8.606648 75.896,12.34 C75.896,16.073352 75.3126725,18.6586595 74.146,20.096 C72.9793275,21.5333405 70.9306813,22.252 68,22.252 C65.741322,22.252 63.3333461,22.1680008 60.776,22 Z M64.276,5.368 L64.276,19.256 C65.7320073,19.2933335 66.9733282,19.312 68,19.312 C69.6053414,19.312 70.7066637,18.8126717 71.304,17.814 C71.9013363,16.8153283 72.2,14.9906799 72.2,12.34 C72.2,9.68932008 71.8966697,7.86000504 71.29,6.852 C70.6833303,5.84399496 69.5866746,5.34 68,5.34 C67.4959975,5.34 66.8380041,5.34466662 66.026,5.354 C65.2139959,5.36333338 64.6306684,5.368 64.276,5.368 Z M89.2,11.92 L89.2,12.032 C90.600007,12.1626673 91.5986637,12.6526624 92.196,13.502 C92.7933363,14.3513376 93.092,15.5786586 93.092,17.184 C93.092,19.125343 92.6160048,20.4506631 91.664,21.16 C90.7119952,21.8693369 89.0786782,22.224 86.764,22.224 C83.4039832,22.224 80.8373422,22.1493341 79.064,22 L79.064,2.68 C80.6506746,2.53066592 82.9279852,2.456 85.896,2.456 C88.3786791,2.456 90.1006619,2.8059965 91.062,3.506 C92.0233381,4.2060035 92.504,5.5359902 92.504,7.496 C92.504,8.896007 92.2426693,9.95532974 91.72,10.674 C91.1973307,11.3926703 90.3573391,11.8079994 89.2,11.92 Z M82.508,10.716 L86.008,10.716 C87.2026726,10.716 88.0239978,10.5246686 88.472,10.142 C88.9200022,9.75933142 89.144,9.02667208 89.144,7.944 C89.144,6.87999468 88.9013358,6.17066844 88.416,5.816 C87.9306642,5.46133156 87.0346732,5.284 85.728,5.284 L82.508,5.284 L82.508,10.716 Z M82.508,19.368 L86.176,19.396 C87.50134,19.396 88.4019976,19.2046686 88.878,18.822 C89.3540024,18.4393314 89.592,17.6786724 89.592,16.54 C89.592,15.2706603 89.3400025,14.4120022 88.836,13.964 C88.3319975,13.5159978 87.4080067,13.2826668 86.064,13.264 L82.508,13.264 L82.508,19.368 Z M103.428,2.316 C106.414682,2.316 108.491327,3.03465948 109.658,4.472 C110.824672,5.90934052 111.408,8.53198096 111.408,12.34 C111.408,16.148019 110.824672,18.7706595 109.658,20.208 C108.491327,21.6453405 106.414682,22.364 103.428,22.364 C100.459985,22.364 98.3926725,21.6453405 97.226,20.208 C96.0593275,18.7706595 95.476,16.148019 95.476,12.34 C95.476,8.53198096 96.0593275,5.90934052 97.226,4.472 C98.3926725,3.03465948 100.459985,2.316 103.428,2.316 Z M103.428,5.312 C101.803992,5.312 100.68867,5.81132834 100.082,6.81 C99.4753303,7.80867166 99.172,9.65198656 99.172,12.34 C99.172,15.0280134 99.4753303,16.8713283 100.082,17.87 C100.68867,18.8686717 101.803992,19.368 103.428,19.368 C105.070675,19.368 106.19533,18.8686717 106.802,17.87 C107.40867,16.8713283 107.712,15.0280134 107.712,12.34 C107.712,9.65198656 107.40867,7.80867166 106.802,6.81 C106.19533,5.81132834 105.070675,5.312 103.428,5.312 Z M120.876,13.264 L120.344,13.264 L116.032,22 L112.336,22 L117.46,12.06 L112.7,2.68 L116.368,2.68 L120.316,10.744 L120.904,10.744 L124.852,2.68 L128.548,2.68 L123.76,12.06 L128.912,22 L125.188,22 L120.876,13.264 Z" id="AIDBOX" fill="#FFFFFF"></path>
            <path d="M11.2929293,13.6 L13,9.2 L14.7070707,13.6 L11.1616162,13.6 L11.2929293,13.6 L11.2929293,13.6 L11.2929293,13.6 Z M5.77777778,19.3333333 L8.7979798,19.3333333 L9.97979798,16.2666667 L15.7575758,16.2666667 L16.9393939,19.3333333 L20.0909091,19.3333333 L14.3131313,5.33333333 L11.5555556,5.33333333 L5.77777778,19.3333333 L5.77777778,19.3333333 L5.77777778,19.3333333 L5.77777778,19.3333333 Z" id="Shape" fill="#FFB047"></path>
            <path d="M2.75757576,23.2 L2.75757576,17.3333333 L0,17.3333333 L0,26 L8.53535354,26 L8.53535354,23.2 L2.75757576,23.2 L2.75757576,23.2 L2.75757576,23.2 L2.75757576,23.2 Z M23.2424242,17.3333333 L23.2424242,23.2 L17.4646465,23.2 L17.4646465,26 L26,26 L26,17.3333333 L23.3737374,17.3333333 L23.2424242,17.3333333 L23.2424242,17.3333333 L23.2424242,17.3333333 Z M17.4646465,0 L17.4646465,2.53333333 L23.3737374,2.53333333 L23.3737374,8.66666667 L26,8.66666667 L26,0 L17.4646465,0 L17.4646465,0 L17.4646465,0 L17.4646465,0 Z M2.88888889,2.53333333 L8.53535354,2.53333333 L8.53535354,0 L0,0 L0,8.66666667 L2.75757576,8.66666667 L2.75757576,2.53333333 L2.88888889,2.53333333 L2.88888889,2.53333333 L2.88888889,2.53333333 Z" id="Shape" fill="#2A4962"></path>
        </g>
    </g>
</svg>